PathFileType	4	(X/Y/Z)	D:\MotionData\NordSprintingStudy\Test 2\Edited\COP_Left_Board_FP2000002.trc
DataRate	CameraRate	NumFrames	NumMarkers	Units	OrigDataRate	OrigDataStartFrame	OrigNumFrames
200.00	200.00	     23	5	mm	200.00	11110	     12696
Frame#	Time	M1			M2			M3			M4			M5			
		X1	Y1	Z1	X2	Y2	Z2	X3	Y3	Z3	X4	Y4	Z4	X5	Y5	Z5	

11110	55.545	1514.26489	1929.40405	48.75100	1506.29688	2249.83154	53.92197	1305.85742	2245.06543	55.25525	906.46027	2234.87329	56.24023	914.67920	1913.95178	50.39347	
11111	55.550	1514.23621	1929.42236	48.86030	1506.17200	2249.83765	53.99204	1305.73914	2245.01953	55.35660	906.39307	2234.80249	56.31171	914.59326	1913.94434	50.48468	
11112	55.555	1514.12830	1929.39099	48.91996	1506.12012	2249.81323	54.09138	1305.77637	2245.03296	55.34804	906.40857	2234.85303	56.28141	914.60748	1913.91870	50.48986	
11113	55.560	1514.07080	1929.37939	48.98291	1505.99805	2249.81445	54.12108	1305.65552	2245.00513	55.44656	906.36969	2234.83618	56.34080	914.49377	1913.86609	50.59719	
11114	55.565	1513.95947	1929.36548	49.06209	1505.84717	2249.81812	54.24135	1305.64307	2245.01880	55.39560	906.22089	2234.81982	56.46712	914.44482	1913.83069	50.67679	
11115	55.570	1513.91638	1929.36194	49.01432	1505.83093	2249.78711	54.18595	1305.53162	2244.96729	55.54465	906.24377	2234.81616	56.45609	914.38934	1913.82043	50.69083	
11116	55.575	1513.84570	1929.34888	49.08032	1505.70142	2249.75562	54.25033	1305.44019	2244.96484	55.61863	906.15771	2234.80591	56.51405	914.32306	1913.79553	50.75605	
11117	55.580	1513.77747	1929.34753	49.09742	1505.59607	2249.72217	54.29987	1305.39490	2244.91992	55.63144	906.10083	2234.80078	56.54578	914.25574	1913.76501	50.77613	
11118	55.585	1513.65259	1929.32544	49.21045	1505.39783	2249.71460	54.49240	1305.35376	2244.90601	55.61734	906.04535	2234.76587	56.60217	914.21075	1913.70752	50.81878	
11119	55.590	1513.61926	1929.31458	49.15306	1505.36621	2249.70947	54.46817	1305.23328	2244.88281	55.72218	906.02881	2234.79175	56.56250	914.20044	1913.73108	50.82300	
11120	55.595	1513.60876	1929.31726	49.16176	1505.23608	2249.64111	54.50185	1305.25769	2244.89014	55.70458	905.98212	2234.78662	56.62616	914.13995	1913.73047	50.85637	
11121	55.600	1513.52124	1929.33264	49.19367	1505.28394	2249.69897	54.49007	1305.17395	2244.85913	55.77841	905.97974	2234.77954	56.58939	914.14868	1913.70715	50.85531	
11122	55.605	1513.57129	1929.32166	49.15461	1505.25488	2249.66382	54.50211	1305.22571	2244.87671	55.74469	905.96204	2234.75000	56.59111	914.11237	1913.72510	50.81852	
11123	55.610	1513.56738	1929.32959	49.18424	1505.26123	2249.68970	54.51615	1305.20117	2244.88086	55.74766	905.94745	2234.74780	56.59993	914.13623	1913.71326	50.80333	
11124	55.615	1513.56873	1929.36536	49.12197	1505.20129	2249.67798	54.56196	1305.28101	2244.89404	55.61869	906.00885	2234.79272	56.52784	914.19489	1913.73865	50.73157	
11125	55.620	1513.70056	1929.41772	49.02708	1505.47290	2249.77612	54.27472	1305.34656	2244.92993	55.56178	906.02496	2234.78516	56.49266	914.24982	1913.75391	50.70059	
11126	55.625	1513.64038	1929.41931	49.07243	1505.41345	2249.76416	54.28996	1305.37073	2244.94922	55.47808	905.96857	2234.77759	56.50660	914.24237	1913.76074	50.67235	
11127	55.630	1513.78479	1929.43091	48.87115	1505.70142	2249.81079	54.02423	1305.42749	2244.98511	55.42342	906.10651	2234.82617	56.35947	914.36047	1913.78943	50.51556	
11128	55.635	1513.86316	1929.42944	48.81395	1505.80200	2249.85938	53.93142	1305.47180	2244.96411	55.36865	906.11523	2234.86011	56.32003	914.43024	1913.78967	50.46885	
11129	55.640	1513.99426	1929.42700	48.67367	1505.82703	2249.85620	53.79232	1305.61450	2245.03198	55.19410	906.23657	2234.84521	56.14898	914.54974	1913.81775	50.29839	
11130	55.645	1514.00146	1929.42432	48.61793	1505.98523	2249.90479	53.72790	1305.67493	2245.01758	55.14692	906.25391	2234.85547	56.13814	914.64148	1913.83411	50.20382	
11131	55.650	1514.02368	1929.40820	48.63733	1505.94592	2249.88599	53.77261	1305.81104	2245.02515	54.98753	906.31317	2234.83276	56.06162	914.72565	1913.80042	50.17484	
11132	55.655	1514.23315	1929.40942	48.51316	1506.24524	2249.94849	53.54979	1305.82251	2245.04272	55.01828	906.33429	2234.85327	56.06651	914.81366	1913.79810	50.09115	
